<mxfile host="Electron" modified="2023-05-29T14:09:56.275Z" agent="Mozilla/5.0 (X11; Linux x86_64) AppleWebKit/537.36 (KHTML, like Gecko) draw.io/21.2.8 Chrome/112.0.5615.165 Electron/24.2.0 Safari/537.36" etag="O3mYgiY2LbtUBzuqYkuC" version="21.2.8" type="device" pages="3">
  <diagram name="Tables" id="OK8i48mbwz4tB2tAxscJ">
    <mxGraphModel dx="1434" dy="839" grid="1" gridSize="10" guides="1" tooltips="1" connect="1" arrows="1" fold="1" page="1" pageScale="1" pageWidth="1100" pageHeight="850" math="0" shadow="0">
      <root>
        <mxCell id="0" />
        <mxCell id="1" parent="0" />
        <mxCell id="XVwmbr8q7HoOvuYCeXUR-1" value="" style="verticalLabelPosition=bottom;verticalAlign=top;html=1;shape=mxgraph.basic.rect;fillColor2=none;strokeWidth=1;size=5;indent=4;fillStyle=solid;fontColor=#e3f4ff;fillColor=#4874EC;gradientColor=#1D4AAA;gradientDirection=east;top=1;right=1;topLeftStyle=square;topRightStyle=square;bottomRightStyle=rounded;absoluteCornerSize=1;fillOpacity=100;bottomLeftStyle=rounded;strokeColor=none;" vertex="1" parent="1">
          <mxGeometry x="80" y="120" width="90" height="120" as="geometry" />
        </mxCell>
        <mxCell id="XVwmbr8q7HoOvuYCeXUR-2" value="&lt;font face=&quot;Roboto&quot; color=&quot;#e3f4ff&quot;&gt;id&lt;/font&gt;" style="text;html=1;strokeColor=none;fillColor=none;align=left;verticalAlign=middle;whiteSpace=wrap;rounded=0;" vertex="1" parent="1">
          <mxGeometry x="80" y="120" width="80" height="20" as="geometry" />
        </mxCell>
        <mxCell id="XVwmbr8q7HoOvuYCeXUR-3" value="" style="verticalLabelPosition=bottom;verticalAlign=top;html=1;shape=mxgraph.basic.rect;fillColor2=none;strokeWidth=1;size=5;indent=4;fillStyle=solid;fontColor=#e3f4ff;fillColor=#98DCF4;gradientColor=#44BDFF;gradientDirection=east;top=1;right=1;topLeftStyle=rounded;topRightStyle=rounded;bottomRightStyle=square;absoluteCornerSize=1;fillOpacity=100;bottomLeftStyle=square;strokeColor=none;" vertex="1" parent="1">
          <mxGeometry x="80" y="80" width="90" height="40" as="geometry" />
        </mxCell>
        <mxCell id="XVwmbr8q7HoOvuYCeXUR-4" value="&lt;font face=&quot;Roboto&quot; color=&quot;#063d76&quot;&gt;&lt;b&gt;addresses&lt;/b&gt;&lt;/font&gt;" style="text;html=1;strokeColor=none;fillColor=none;align=center;verticalAlign=middle;whiteSpace=wrap;rounded=0;" vertex="1" parent="1">
          <mxGeometry x="90" y="80" width="70" height="40" as="geometry" />
        </mxCell>
        <mxCell id="XVwmbr8q7HoOvuYCeXUR-7" value="&lt;font face=&quot;Roboto&quot; color=&quot;#e3f4ff&quot;&gt;street_address&lt;/font&gt;" style="text;html=1;strokeColor=none;fillColor=none;align=left;verticalAlign=middle;whiteSpace=wrap;rounded=0;" vertex="1" parent="1">
          <mxGeometry x="80" y="140" width="80" height="20" as="geometry" />
        </mxCell>
        <mxCell id="BwBHXlFpbeUXtzriOI6M-1" value="&lt;font face=&quot;Roboto&quot; color=&quot;#e3f4ff&quot;&gt;city&lt;/font&gt;" style="text;html=1;strokeColor=none;fillColor=none;align=left;verticalAlign=middle;whiteSpace=wrap;rounded=0;" vertex="1" parent="1">
          <mxGeometry x="80" y="160" width="80" height="20" as="geometry" />
        </mxCell>
        <mxCell id="BwBHXlFpbeUXtzriOI6M-2" value="&lt;font face=&quot;Roboto&quot; color=&quot;#e3f4ff&quot;&gt;state&lt;/font&gt;" style="text;html=1;strokeColor=none;fillColor=none;align=left;verticalAlign=middle;whiteSpace=wrap;rounded=0;" vertex="1" parent="1">
          <mxGeometry x="80" y="180" width="80" height="20" as="geometry" />
        </mxCell>
        <mxCell id="BwBHXlFpbeUXtzriOI6M-3" value="&lt;font face=&quot;Roboto&quot; color=&quot;#e3f4ff&quot;&gt;zip_code&lt;/font&gt;" style="text;html=1;strokeColor=none;fillColor=none;align=left;verticalAlign=middle;whiteSpace=wrap;rounded=0;" vertex="1" parent="1">
          <mxGeometry x="80" y="200" width="80" height="20" as="geometry" />
        </mxCell>
        <mxCell id="BwBHXlFpbeUXtzriOI6M-4" value="&lt;font face=&quot;Roboto&quot; color=&quot;#e3f4ff&quot;&gt;location&lt;/font&gt;" style="text;html=1;strokeColor=none;fillColor=none;align=left;verticalAlign=middle;whiteSpace=wrap;rounded=0;" vertex="1" parent="1">
          <mxGeometry x="80" y="220" width="80" height="20" as="geometry" />
        </mxCell>
        <mxCell id="BwBHXlFpbeUXtzriOI6M-5" value="" style="verticalLabelPosition=bottom;verticalAlign=top;html=1;shape=mxgraph.basic.rect;fillColor2=none;strokeWidth=1;size=5;indent=4;fillStyle=solid;fontColor=#e3f4ff;fillColor=#4874EC;gradientColor=#1D4AAA;gradientDirection=east;top=1;right=1;topLeftStyle=square;topRightStyle=square;bottomRightStyle=rounded;absoluteCornerSize=1;fillOpacity=100;bottomLeftStyle=rounded;strokeColor=none;" vertex="1" parent="1">
          <mxGeometry x="200" y="120" width="90" height="60" as="geometry" />
        </mxCell>
        <mxCell id="BwBHXlFpbeUXtzriOI6M-6" value="&lt;font face=&quot;Roboto&quot; color=&quot;#e3f4ff&quot;&gt;id&lt;/font&gt;" style="text;html=1;strokeColor=none;fillColor=none;align=left;verticalAlign=middle;whiteSpace=wrap;rounded=0;" vertex="1" parent="1">
          <mxGeometry x="200" y="120" width="80" height="20" as="geometry" />
        </mxCell>
        <mxCell id="BwBHXlFpbeUXtzriOI6M-7" value="" style="verticalLabelPosition=bottom;verticalAlign=top;html=1;shape=mxgraph.basic.rect;fillColor2=none;strokeWidth=1;size=5;indent=4;fillStyle=solid;fontColor=#e3f4ff;fillColor=#98DCF4;gradientColor=#44BDFF;gradientDirection=east;top=1;right=1;topLeftStyle=rounded;topRightStyle=rounded;bottomRightStyle=square;absoluteCornerSize=1;fillOpacity=100;bottomLeftStyle=square;strokeColor=none;" vertex="1" parent="1">
          <mxGeometry x="200" y="80" width="90" height="40" as="geometry" />
        </mxCell>
        <mxCell id="BwBHXlFpbeUXtzriOI6M-8" value="&lt;font face=&quot;Roboto&quot; color=&quot;#063d76&quot;&gt;&lt;b&gt;carmodel&lt;/b&gt;&lt;/font&gt;" style="text;html=1;strokeColor=none;fillColor=none;align=center;verticalAlign=middle;whiteSpace=wrap;rounded=0;" vertex="1" parent="1">
          <mxGeometry x="210" y="80" width="70" height="40" as="geometry" />
        </mxCell>
        <mxCell id="BwBHXlFpbeUXtzriOI6M-9" value="&lt;font face=&quot;Roboto&quot; color=&quot;#e3f4ff&quot;&gt;brandname&lt;/font&gt;" style="text;html=1;strokeColor=none;fillColor=none;align=left;verticalAlign=middle;whiteSpace=wrap;rounded=0;" vertex="1" parent="1">
          <mxGeometry x="200" y="140" width="80" height="20" as="geometry" />
        </mxCell>
        <mxCell id="BwBHXlFpbeUXtzriOI6M-10" value="&lt;font face=&quot;Roboto&quot; color=&quot;#e3f4ff&quot;&gt;carmodel&lt;/font&gt;" style="text;html=1;strokeColor=none;fillColor=none;align=left;verticalAlign=middle;whiteSpace=wrap;rounded=0;" vertex="1" parent="1">
          <mxGeometry x="200" y="160" width="80" height="20" as="geometry" />
        </mxCell>
        <mxCell id="BwBHXlFpbeUXtzriOI6M-14" value="" style="verticalLabelPosition=bottom;verticalAlign=top;html=1;shape=mxgraph.basic.rect;fillColor2=none;strokeWidth=1;size=5;indent=4;fillStyle=solid;fontColor=#e3f4ff;fillColor=#4874EC;gradientColor=#1D4AAA;gradientDirection=east;top=1;right=1;topLeftStyle=square;topRightStyle=square;bottomRightStyle=rounded;absoluteCornerSize=1;fillOpacity=100;bottomLeftStyle=rounded;strokeColor=none;" vertex="1" parent="1">
          <mxGeometry x="320" y="120" width="90" height="60" as="geometry" />
        </mxCell>
        <mxCell id="BwBHXlFpbeUXtzriOI6M-15" value="&lt;font face=&quot;Roboto&quot; color=&quot;#e3f4ff&quot;&gt;id&lt;/font&gt;" style="text;html=1;strokeColor=none;fillColor=none;align=left;verticalAlign=middle;whiteSpace=wrap;rounded=0;" vertex="1" parent="1">
          <mxGeometry x="320" y="120" width="80" height="20" as="geometry" />
        </mxCell>
        <mxCell id="BwBHXlFpbeUXtzriOI6M-16" value="" style="verticalLabelPosition=bottom;verticalAlign=top;html=1;shape=mxgraph.basic.rect;fillColor2=none;strokeWidth=1;size=5;indent=4;fillStyle=solid;fontColor=#e3f4ff;fillColor=#98DCF4;gradientColor=#44BDFF;gradientDirection=east;top=1;right=1;topLeftStyle=rounded;topRightStyle=rounded;bottomRightStyle=square;absoluteCornerSize=1;fillOpacity=100;bottomLeftStyle=square;strokeColor=none;" vertex="1" parent="1">
          <mxGeometry x="320" y="80" width="90" height="40" as="geometry" />
        </mxCell>
        <mxCell id="BwBHXlFpbeUXtzriOI6M-17" value="&lt;font face=&quot;Roboto&quot; color=&quot;#063d76&quot;&gt;&lt;b&gt;city&lt;/b&gt;&lt;/font&gt;" style="text;html=1;strokeColor=none;fillColor=none;align=center;verticalAlign=middle;whiteSpace=wrap;rounded=0;" vertex="1" parent="1">
          <mxGeometry x="330" y="80" width="70" height="40" as="geometry" />
        </mxCell>
        <mxCell id="BwBHXlFpbeUXtzriOI6M-18" value="&lt;font face=&quot;Roboto&quot; color=&quot;#e3f4ff&quot;&gt;city_name&lt;/font&gt;" style="text;html=1;strokeColor=none;fillColor=none;align=left;verticalAlign=middle;whiteSpace=wrap;rounded=0;" vertex="1" parent="1">
          <mxGeometry x="320" y="140" width="80" height="20" as="geometry" />
        </mxCell>
        <mxCell id="BwBHXlFpbeUXtzriOI6M-19" value="&lt;font face=&quot;Roboto&quot; color=&quot;#e3f4ff&quot;&gt;location&lt;/font&gt;" style="text;html=1;strokeColor=none;fillColor=none;align=left;verticalAlign=middle;whiteSpace=wrap;rounded=0;" vertex="1" parent="1">
          <mxGeometry x="320" y="160" width="80" height="20" as="geometry" />
        </mxCell>
        <mxCell id="BwBHXlFpbeUXtzriOI6M-20" value="" style="verticalLabelPosition=bottom;verticalAlign=top;html=1;shape=mxgraph.basic.rect;fillColor2=none;strokeWidth=1;size=5;indent=4;fillStyle=solid;fontColor=#e3f4ff;fillColor=#4874EC;gradientColor=#1D4AAA;gradientDirection=east;top=1;right=1;topLeftStyle=square;topRightStyle=square;bottomRightStyle=rounded;absoluteCornerSize=1;fillOpacity=100;bottomLeftStyle=rounded;strokeColor=none;" vertex="1" parent="1">
          <mxGeometry x="440" y="120" width="90" height="60" as="geometry" />
        </mxCell>
        <mxCell id="BwBHXlFpbeUXtzriOI6M-21" value="&lt;font face=&quot;Roboto&quot; color=&quot;#e3f4ff&quot;&gt;id&lt;/font&gt;" style="text;html=1;strokeColor=none;fillColor=none;align=left;verticalAlign=middle;whiteSpace=wrap;rounded=0;" vertex="1" parent="1">
          <mxGeometry x="440" y="120" width="80" height="20" as="geometry" />
        </mxCell>
        <mxCell id="BwBHXlFpbeUXtzriOI6M-22" value="" style="verticalLabelPosition=bottom;verticalAlign=top;html=1;shape=mxgraph.basic.rect;fillColor2=none;strokeWidth=1;size=5;indent=4;fillStyle=solid;fontColor=#e3f4ff;fillColor=#98DCF4;gradientColor=#44BDFF;gradientDirection=east;top=1;right=1;topLeftStyle=rounded;topRightStyle=rounded;bottomRightStyle=square;absoluteCornerSize=1;fillOpacity=100;bottomLeftStyle=square;strokeColor=none;" vertex="1" parent="1">
          <mxGeometry x="440" y="80" width="90" height="40" as="geometry" />
        </mxCell>
        <mxCell id="BwBHXlFpbeUXtzriOI6M-23" value="&lt;font face=&quot;Roboto&quot; color=&quot;#063d76&quot;&gt;&lt;b&gt;modules&lt;/b&gt;&lt;/font&gt;" style="text;html=1;strokeColor=none;fillColor=none;align=center;verticalAlign=middle;whiteSpace=wrap;rounded=0;" vertex="1" parent="1">
          <mxGeometry x="450" y="80" width="70" height="40" as="geometry" />
        </mxCell>
        <mxCell id="BwBHXlFpbeUXtzriOI6M-24" value="&lt;font face=&quot;Roboto&quot; color=&quot;#e3f4ff&quot;&gt;name&lt;/font&gt;" style="text;html=1;strokeColor=none;fillColor=none;align=left;verticalAlign=middle;whiteSpace=wrap;rounded=0;" vertex="1" parent="1">
          <mxGeometry x="440" y="140" width="80" height="20" as="geometry" />
        </mxCell>
        <mxCell id="BwBHXlFpbeUXtzriOI6M-25" value="&lt;font face=&quot;Roboto&quot; color=&quot;#e3f4ff&quot;&gt;mac_address&lt;/font&gt;" style="text;html=1;strokeColor=none;fillColor=none;align=left;verticalAlign=middle;whiteSpace=wrap;rounded=0;" vertex="1" parent="1">
          <mxGeometry x="440" y="160" width="80" height="20" as="geometry" />
        </mxCell>
        <mxCell id="BwBHXlFpbeUXtzriOI6M-26" value="" style="verticalLabelPosition=bottom;verticalAlign=top;html=1;shape=mxgraph.basic.rect;fillColor2=none;strokeWidth=1;size=5;indent=4;fillStyle=solid;fontColor=#e3f4ff;fillColor=#4874EC;gradientColor=#1D4AAA;gradientDirection=east;top=1;right=1;topLeftStyle=square;topRightStyle=square;bottomRightStyle=rounded;absoluteCornerSize=1;fillOpacity=100;bottomLeftStyle=rounded;strokeColor=none;" vertex="1" parent="1">
          <mxGeometry x="560" y="120" width="90" height="140" as="geometry" />
        </mxCell>
        <mxCell id="BwBHXlFpbeUXtzriOI6M-27" value="&lt;font face=&quot;Roboto&quot; color=&quot;#e3f4ff&quot;&gt;id&lt;/font&gt;" style="text;html=1;strokeColor=none;fillColor=none;align=left;verticalAlign=middle;whiteSpace=wrap;rounded=0;" vertex="1" parent="1">
          <mxGeometry x="560" y="120" width="80" height="20" as="geometry" />
        </mxCell>
        <mxCell id="BwBHXlFpbeUXtzriOI6M-28" value="" style="verticalLabelPosition=bottom;verticalAlign=top;html=1;shape=mxgraph.basic.rect;fillColor2=none;strokeWidth=1;size=5;indent=4;fillStyle=solid;fontColor=#e3f4ff;fillColor=#98DCF4;gradientColor=#44BDFF;gradientDirection=east;top=1;right=1;topLeftStyle=rounded;topRightStyle=rounded;bottomRightStyle=square;absoluteCornerSize=1;fillOpacity=100;bottomLeftStyle=square;strokeColor=none;" vertex="1" parent="1">
          <mxGeometry x="560" y="80" width="90" height="40" as="geometry" />
        </mxCell>
        <mxCell id="BwBHXlFpbeUXtzriOI6M-29" value="&lt;font face=&quot;Roboto&quot; color=&quot;#063d76&quot;&gt;&lt;b&gt;users&lt;/b&gt;&lt;/font&gt;" style="text;html=1;strokeColor=none;fillColor=none;align=center;verticalAlign=middle;whiteSpace=wrap;rounded=0;" vertex="1" parent="1">
          <mxGeometry x="570" y="80" width="70" height="40" as="geometry" />
        </mxCell>
        <mxCell id="BwBHXlFpbeUXtzriOI6M-30" value="&lt;font face=&quot;Roboto&quot; color=&quot;#e3f4ff&quot;&gt;name&lt;/font&gt;" style="text;html=1;strokeColor=none;fillColor=none;align=left;verticalAlign=middle;whiteSpace=wrap;rounded=0;" vertex="1" parent="1">
          <mxGeometry x="560" y="140" width="80" height="20" as="geometry" />
        </mxCell>
        <mxCell id="BwBHXlFpbeUXtzriOI6M-31" value="&lt;font face=&quot;Roboto&quot; color=&quot;#e3f4ff&quot;&gt;email&lt;/font&gt;" style="text;html=1;strokeColor=none;fillColor=none;align=left;verticalAlign=middle;whiteSpace=wrap;rounded=0;" vertex="1" parent="1">
          <mxGeometry x="560" y="160" width="80" height="20" as="geometry" />
        </mxCell>
        <mxCell id="BwBHXlFpbeUXtzriOI6M-32" value="&lt;font face=&quot;Roboto&quot; color=&quot;#e3f4ff&quot;&gt;phone&lt;/font&gt;" style="text;html=1;strokeColor=none;fillColor=none;align=left;verticalAlign=middle;whiteSpace=wrap;rounded=0;" vertex="1" parent="1">
          <mxGeometry x="560" y="180" width="80" height="20" as="geometry" />
        </mxCell>
        <mxCell id="BwBHXlFpbeUXtzriOI6M-33" value="&lt;font face=&quot;Roboto&quot; color=&quot;#e3f4ff&quot;&gt;password&lt;/font&gt;" style="text;html=1;strokeColor=none;fillColor=none;align=left;verticalAlign=middle;whiteSpace=wrap;rounded=0;" vertex="1" parent="1">
          <mxGeometry x="560" y="200" width="80" height="20" as="geometry" />
        </mxCell>
        <mxCell id="BwBHXlFpbeUXtzriOI6M-34" value="&lt;font face=&quot;Roboto&quot; color=&quot;#e3f4ff&quot;&gt;salt&lt;/font&gt;" style="text;html=1;strokeColor=none;fillColor=none;align=left;verticalAlign=middle;whiteSpace=wrap;rounded=0;" vertex="1" parent="1">
          <mxGeometry x="560" y="220" width="80" height="20" as="geometry" />
        </mxCell>
        <mxCell id="BwBHXlFpbeUXtzriOI6M-35" value="&lt;font face=&quot;Roboto&quot; color=&quot;#e3f4ff&quot;&gt;id_identity&lt;/font&gt;" style="text;html=1;strokeColor=none;fillColor=none;align=left;verticalAlign=middle;whiteSpace=wrap;rounded=0;" vertex="1" parent="1">
          <mxGeometry x="560" y="240" width="80" height="20" as="geometry" />
        </mxCell>
        <mxCell id="BwBHXlFpbeUXtzriOI6M-36" value="" style="verticalLabelPosition=bottom;verticalAlign=top;html=1;shape=mxgraph.basic.rect;fillColor2=none;strokeWidth=1;size=5;indent=4;fillStyle=solid;fontColor=#e3f4ff;fillColor=#4874EC;gradientColor=#1D4AAA;gradientDirection=east;top=1;right=1;topLeftStyle=square;topRightStyle=square;bottomRightStyle=rounded;absoluteCornerSize=1;fillOpacity=100;bottomLeftStyle=rounded;strokeColor=none;" vertex="1" parent="1">
          <mxGeometry x="680" y="120" width="90" height="180" as="geometry" />
        </mxCell>
        <mxCell id="BwBHXlFpbeUXtzriOI6M-37" value="&lt;font face=&quot;Roboto&quot; color=&quot;#e3f4ff&quot;&gt;id&lt;/font&gt;" style="text;html=1;strokeColor=none;fillColor=none;align=left;verticalAlign=middle;whiteSpace=wrap;rounded=0;" vertex="1" parent="1">
          <mxGeometry x="680" y="120" width="80" height="20" as="geometry" />
        </mxCell>
        <mxCell id="BwBHXlFpbeUXtzriOI6M-38" value="" style="verticalLabelPosition=bottom;verticalAlign=top;html=1;shape=mxgraph.basic.rect;fillColor2=none;strokeWidth=1;size=5;indent=4;fillStyle=solid;fontColor=#e3f4ff;fillColor=#98DCF4;gradientColor=#44BDFF;gradientDirection=east;top=1;right=1;topLeftStyle=rounded;topRightStyle=rounded;bottomRightStyle=square;absoluteCornerSize=1;fillOpacity=100;bottomLeftStyle=square;strokeColor=none;" vertex="1" parent="1">
          <mxGeometry x="680" y="80" width="90" height="40" as="geometry" />
        </mxCell>
        <mxCell id="BwBHXlFpbeUXtzriOI6M-39" value="&lt;font face=&quot;Roboto&quot; color=&quot;#063d76&quot;&gt;&lt;b&gt;vehicles&lt;/b&gt;&lt;/font&gt;" style="text;html=1;strokeColor=none;fillColor=none;align=center;verticalAlign=middle;whiteSpace=wrap;rounded=0;" vertex="1" parent="1">
          <mxGeometry x="690" y="80" width="70" height="40" as="geometry" />
        </mxCell>
        <mxCell id="BwBHXlFpbeUXtzriOI6M-40" value="&lt;font face=&quot;Roboto&quot; color=&quot;#e3f4ff&quot;&gt;name&lt;/font&gt;" style="text;html=1;strokeColor=none;fillColor=none;align=left;verticalAlign=middle;whiteSpace=wrap;rounded=0;" vertex="1" parent="1">
          <mxGeometry x="680" y="140" width="80" height="20" as="geometry" />
        </mxCell>
        <mxCell id="BwBHXlFpbeUXtzriOI6M-41" value="&lt;font face=&quot;Roboto&quot; color=&quot;#e3f4ff&quot;&gt;licence_plate&lt;/font&gt;" style="text;html=1;strokeColor=none;fillColor=none;align=left;verticalAlign=middle;whiteSpace=wrap;rounded=0;" vertex="1" parent="1">
          <mxGeometry x="680" y="160" width="80" height="20" as="geometry" />
        </mxCell>
        <mxCell id="BwBHXlFpbeUXtzriOI6M-42" value="&lt;font face=&quot;Roboto&quot; color=&quot;#e3f4ff&quot;&gt;id_address&lt;/font&gt;" style="text;html=1;strokeColor=none;fillColor=none;align=left;verticalAlign=middle;whiteSpace=wrap;rounded=0;" vertex="1" parent="1">
          <mxGeometry x="680" y="180" width="80" height="20" as="geometry" />
        </mxCell>
        <mxCell id="BwBHXlFpbeUXtzriOI6M-43" value="&lt;font face=&quot;Roboto&quot; color=&quot;#e3f4ff&quot;&gt;id_owner&lt;/font&gt;" style="text;html=1;strokeColor=none;fillColor=none;align=left;verticalAlign=middle;whiteSpace=wrap;rounded=0;" vertex="1" parent="1">
          <mxGeometry x="680" y="200" width="80" height="20" as="geometry" />
        </mxCell>
        <mxCell id="BwBHXlFpbeUXtzriOI6M-44" value="&lt;font face=&quot;Roboto&quot; color=&quot;#e3f4ff&quot;&gt;is_available&lt;/font&gt;" style="text;html=1;strokeColor=none;fillColor=none;align=left;verticalAlign=middle;whiteSpace=wrap;rounded=0;" vertex="1" parent="1">
          <mxGeometry x="680" y="220" width="80" height="20" as="geometry" />
        </mxCell>
        <mxCell id="BwBHXlFpbeUXtzriOI6M-45" value="&lt;font face=&quot;Roboto&quot; color=&quot;#e3f4ff&quot;&gt;is_booked&lt;/font&gt;" style="text;html=1;strokeColor=none;fillColor=none;align=left;verticalAlign=middle;whiteSpace=wrap;rounded=0;" vertex="1" parent="1">
          <mxGeometry x="680" y="240" width="80" height="20" as="geometry" />
        </mxCell>
        <mxCell id="BwBHXlFpbeUXtzriOI6M-46" value="&lt;font face=&quot;Roboto&quot; color=&quot;#e3f4ff&quot;&gt;id_user_book&lt;/font&gt;" style="text;html=1;strokeColor=none;fillColor=none;align=left;verticalAlign=middle;whiteSpace=wrap;rounded=0;" vertex="1" parent="1">
          <mxGeometry x="680" y="260" width="80" height="20" as="geometry" />
        </mxCell>
        <mxCell id="BwBHXlFpbeUXtzriOI6M-47" value="&lt;font face=&quot;Roboto&quot; color=&quot;#e3f4ff&quot;&gt;id_module&lt;/font&gt;" style="text;html=1;strokeColor=none;fillColor=none;align=left;verticalAlign=middle;whiteSpace=wrap;rounded=0;" vertex="1" parent="1">
          <mxGeometry x="680" y="280" width="80" height="20" as="geometry" />
        </mxCell>
      </root>
    </mxGraphModel>
  </diagram>
  <diagram id="77QkoXE2tU7jy20MGEyN" name="MLD">
    <mxGraphModel dx="1195" dy="699" grid="1" gridSize="10" guides="1" tooltips="1" connect="1" arrows="1" fold="1" page="1" pageScale="1" pageWidth="1100" pageHeight="850" math="0" shadow="0">
      <root>
        <mxCell id="0" />
        <mxCell id="1" parent="0" />
        <mxCell id="5gIK9H_TRk9RTIMX3tJv-1" value="" style="verticalLabelPosition=bottom;verticalAlign=top;html=1;shape=mxgraph.basic.rect;fillColor2=none;strokeWidth=1;size=5;indent=4;fillStyle=solid;fontColor=#e3f4ff;fillColor=#4874EC;gradientColor=#1D4AAA;gradientDirection=east;top=1;right=1;topLeftStyle=square;topRightStyle=square;bottomRightStyle=rounded;absoluteCornerSize=1;fillOpacity=100;bottomLeftStyle=rounded;strokeColor=none;" vertex="1" parent="1">
          <mxGeometry x="960" y="120" width="90" height="120" as="geometry" />
        </mxCell>
        <mxCell id="5gIK9H_TRk9RTIMX3tJv-2" value="&lt;font face=&quot;Roboto&quot; color=&quot;#e3f4ff&quot;&gt;&lt;u&gt;id&lt;/u&gt;&lt;/font&gt;" style="text;html=1;strokeColor=none;fillColor=none;align=left;verticalAlign=middle;whiteSpace=wrap;rounded=0;" vertex="1" parent="1">
          <mxGeometry x="960" y="120" width="80" height="20" as="geometry" />
        </mxCell>
        <mxCell id="5gIK9H_TRk9RTIMX3tJv-3" value="" style="verticalLabelPosition=bottom;verticalAlign=top;html=1;shape=mxgraph.basic.rect;fillColor2=none;strokeWidth=1;size=5;indent=4;fillStyle=solid;fontColor=#e3f4ff;fillColor=#98DCF4;gradientColor=#44BDFF;gradientDirection=east;top=1;right=1;topLeftStyle=rounded;topRightStyle=rounded;bottomRightStyle=square;absoluteCornerSize=1;fillOpacity=100;bottomLeftStyle=square;strokeColor=none;" vertex="1" parent="1">
          <mxGeometry x="960" y="80" width="90" height="40" as="geometry" />
        </mxCell>
        <mxCell id="5gIK9H_TRk9RTIMX3tJv-4" value="&lt;font face=&quot;Roboto&quot; color=&quot;#063d76&quot;&gt;&lt;b&gt;addresses&lt;/b&gt;&lt;/font&gt;" style="text;html=1;strokeColor=none;fillColor=none;align=center;verticalAlign=middle;whiteSpace=wrap;rounded=0;" vertex="1" parent="1">
          <mxGeometry x="970" y="80" width="70" height="40" as="geometry" />
        </mxCell>
        <mxCell id="5gIK9H_TRk9RTIMX3tJv-5" value="&lt;font face=&quot;Roboto&quot; color=&quot;#e3f4ff&quot;&gt;street_address&lt;/font&gt;" style="text;html=1;strokeColor=none;fillColor=none;align=left;verticalAlign=middle;whiteSpace=wrap;rounded=0;" vertex="1" parent="1">
          <mxGeometry x="960" y="140" width="80" height="20" as="geometry" />
        </mxCell>
        <mxCell id="5gIK9H_TRk9RTIMX3tJv-6" value="&lt;font face=&quot;Roboto&quot; color=&quot;#e3f4ff&quot;&gt;city&lt;/font&gt;" style="text;html=1;strokeColor=none;fillColor=none;align=left;verticalAlign=middle;whiteSpace=wrap;rounded=0;" vertex="1" parent="1">
          <mxGeometry x="960" y="160" width="80" height="20" as="geometry" />
        </mxCell>
        <mxCell id="5gIK9H_TRk9RTIMX3tJv-7" value="&lt;font face=&quot;Roboto&quot; color=&quot;#e3f4ff&quot;&gt;state&lt;/font&gt;" style="text;html=1;strokeColor=none;fillColor=none;align=left;verticalAlign=middle;whiteSpace=wrap;rounded=0;" vertex="1" parent="1">
          <mxGeometry x="960" y="180" width="80" height="20" as="geometry" />
        </mxCell>
        <mxCell id="5gIK9H_TRk9RTIMX3tJv-8" value="&lt;font face=&quot;Roboto&quot; color=&quot;#e3f4ff&quot;&gt;zip_code&lt;/font&gt;" style="text;html=1;strokeColor=none;fillColor=none;align=left;verticalAlign=middle;whiteSpace=wrap;rounded=0;" vertex="1" parent="1">
          <mxGeometry x="960" y="200" width="80" height="20" as="geometry" />
        </mxCell>
        <mxCell id="5gIK9H_TRk9RTIMX3tJv-9" value="&lt;font face=&quot;Roboto&quot; color=&quot;#e3f4ff&quot;&gt;location&lt;/font&gt;" style="text;html=1;strokeColor=none;fillColor=none;align=left;verticalAlign=middle;whiteSpace=wrap;rounded=0;" vertex="1" parent="1">
          <mxGeometry x="960" y="220" width="80" height="20" as="geometry" />
        </mxCell>
        <mxCell id="5gIK9H_TRk9RTIMX3tJv-10" value="" style="verticalLabelPosition=bottom;verticalAlign=top;html=1;shape=mxgraph.basic.rect;fillColor2=none;strokeWidth=1;size=5;indent=4;fillStyle=solid;fontColor=#e3f4ff;fillColor=#4874EC;gradientColor=#1D4AAA;gradientDirection=east;top=1;right=1;topLeftStyle=square;topRightStyle=square;bottomRightStyle=rounded;absoluteCornerSize=1;fillOpacity=100;bottomLeftStyle=rounded;strokeColor=none;" vertex="1" parent="1">
          <mxGeometry x="590" y="360" width="90" height="60" as="geometry" />
        </mxCell>
        <mxCell id="5gIK9H_TRk9RTIMX3tJv-11" value="&lt;font face=&quot;Roboto&quot; color=&quot;#e3f4ff&quot;&gt;&lt;u&gt;id&lt;/u&gt;&lt;/font&gt;" style="text;html=1;strokeColor=none;fillColor=none;align=left;verticalAlign=middle;whiteSpace=wrap;rounded=0;" vertex="1" parent="1">
          <mxGeometry x="590" y="360" width="80" height="20" as="geometry" />
        </mxCell>
        <mxCell id="5gIK9H_TRk9RTIMX3tJv-12" value="" style="verticalLabelPosition=bottom;verticalAlign=top;html=1;shape=mxgraph.basic.rect;fillColor2=none;strokeWidth=1;size=5;indent=4;fillStyle=solid;fontColor=#e3f4ff;fillColor=#98DCF4;gradientColor=#44BDFF;gradientDirection=east;top=1;right=1;topLeftStyle=rounded;topRightStyle=rounded;bottomRightStyle=square;absoluteCornerSize=1;fillOpacity=100;bottomLeftStyle=square;strokeColor=none;" vertex="1" parent="1">
          <mxGeometry x="590" y="320" width="90" height="40" as="geometry" />
        </mxCell>
        <mxCell id="5gIK9H_TRk9RTIMX3tJv-13" value="&lt;font face=&quot;Roboto&quot; color=&quot;#063d76&quot;&gt;&lt;b&gt;carmodel&lt;/b&gt;&lt;/font&gt;" style="text;html=1;strokeColor=none;fillColor=none;align=center;verticalAlign=middle;whiteSpace=wrap;rounded=0;" vertex="1" parent="1">
          <mxGeometry x="600" y="320" width="70" height="40" as="geometry" />
        </mxCell>
        <mxCell id="5gIK9H_TRk9RTIMX3tJv-14" value="&lt;font face=&quot;Roboto&quot; color=&quot;#e3f4ff&quot;&gt;brandname&lt;/font&gt;" style="text;html=1;strokeColor=none;fillColor=none;align=left;verticalAlign=middle;whiteSpace=wrap;rounded=0;" vertex="1" parent="1">
          <mxGeometry x="590" y="380" width="80" height="20" as="geometry" />
        </mxCell>
        <mxCell id="5gIK9H_TRk9RTIMX3tJv-15" value="&lt;font face=&quot;Roboto&quot; color=&quot;#e3f4ff&quot;&gt;carmodel&lt;/font&gt;" style="text;html=1;strokeColor=none;fillColor=none;align=left;verticalAlign=middle;whiteSpace=wrap;rounded=0;" vertex="1" parent="1">
          <mxGeometry x="590" y="400" width="80" height="20" as="geometry" />
        </mxCell>
        <mxCell id="5gIK9H_TRk9RTIMX3tJv-16" value="" style="verticalLabelPosition=bottom;verticalAlign=top;html=1;shape=mxgraph.basic.rect;fillColor2=none;strokeWidth=1;size=5;indent=4;fillStyle=solid;fontColor=#e3f4ff;fillColor=#4874EC;gradientColor=#1D4AAA;gradientDirection=east;top=1;right=1;topLeftStyle=square;topRightStyle=square;bottomRightStyle=rounded;absoluteCornerSize=1;fillOpacity=100;bottomLeftStyle=rounded;strokeColor=none;" vertex="1" parent="1">
          <mxGeometry x="710" y="360" width="90" height="60" as="geometry" />
        </mxCell>
        <mxCell id="5gIK9H_TRk9RTIMX3tJv-17" value="&lt;font face=&quot;Roboto&quot; color=&quot;#e3f4ff&quot;&gt;&lt;u&gt;id&lt;/u&gt;&lt;/font&gt;" style="text;html=1;strokeColor=none;fillColor=none;align=left;verticalAlign=middle;whiteSpace=wrap;rounded=0;" vertex="1" parent="1">
          <mxGeometry x="710" y="360" width="80" height="20" as="geometry" />
        </mxCell>
        <mxCell id="5gIK9H_TRk9RTIMX3tJv-18" value="" style="verticalLabelPosition=bottom;verticalAlign=top;html=1;shape=mxgraph.basic.rect;fillColor2=none;strokeWidth=1;size=5;indent=4;fillStyle=solid;fontColor=#e3f4ff;fillColor=#98DCF4;gradientColor=#44BDFF;gradientDirection=east;top=1;right=1;topLeftStyle=rounded;topRightStyle=rounded;bottomRightStyle=square;absoluteCornerSize=1;fillOpacity=100;bottomLeftStyle=square;strokeColor=none;" vertex="1" parent="1">
          <mxGeometry x="710" y="320" width="90" height="40" as="geometry" />
        </mxCell>
        <mxCell id="5gIK9H_TRk9RTIMX3tJv-19" value="&lt;font face=&quot;Roboto&quot; color=&quot;#063d76&quot;&gt;&lt;b&gt;city&lt;/b&gt;&lt;/font&gt;" style="text;html=1;strokeColor=none;fillColor=none;align=center;verticalAlign=middle;whiteSpace=wrap;rounded=0;" vertex="1" parent="1">
          <mxGeometry x="720" y="320" width="70" height="40" as="geometry" />
        </mxCell>
        <mxCell id="5gIK9H_TRk9RTIMX3tJv-20" value="&lt;font face=&quot;Roboto&quot; color=&quot;#e3f4ff&quot;&gt;city_name&lt;/font&gt;" style="text;html=1;strokeColor=none;fillColor=none;align=left;verticalAlign=middle;whiteSpace=wrap;rounded=0;" vertex="1" parent="1">
          <mxGeometry x="710" y="380" width="80" height="20" as="geometry" />
        </mxCell>
        <mxCell id="5gIK9H_TRk9RTIMX3tJv-21" value="&lt;font face=&quot;Roboto&quot; color=&quot;#e3f4ff&quot;&gt;location&lt;/font&gt;" style="text;html=1;strokeColor=none;fillColor=none;align=left;verticalAlign=middle;whiteSpace=wrap;rounded=0;" vertex="1" parent="1">
          <mxGeometry x="710" y="400" width="80" height="20" as="geometry" />
        </mxCell>
        <mxCell id="5gIK9H_TRk9RTIMX3tJv-22" value="" style="verticalLabelPosition=bottom;verticalAlign=top;html=1;shape=mxgraph.basic.rect;fillColor2=none;strokeWidth=1;size=5;indent=4;fillStyle=solid;fontColor=#e3f4ff;fillColor=#4874EC;gradientColor=#1D4AAA;gradientDirection=east;top=1;right=1;topLeftStyle=square;topRightStyle=square;bottomRightStyle=rounded;absoluteCornerSize=1;fillOpacity=100;bottomLeftStyle=rounded;strokeColor=none;" vertex="1" parent="1">
          <mxGeometry x="960" y="360" width="90" height="60" as="geometry" />
        </mxCell>
        <mxCell id="5gIK9H_TRk9RTIMX3tJv-23" value="&lt;font face=&quot;Roboto&quot; color=&quot;#e3f4ff&quot;&gt;&lt;u&gt;id&lt;/u&gt;&lt;/font&gt;" style="text;html=1;strokeColor=none;fillColor=none;align=left;verticalAlign=middle;whiteSpace=wrap;rounded=0;" vertex="1" parent="1">
          <mxGeometry x="960" y="360" width="80" height="20" as="geometry" />
        </mxCell>
        <mxCell id="5gIK9H_TRk9RTIMX3tJv-24" value="" style="verticalLabelPosition=bottom;verticalAlign=top;html=1;shape=mxgraph.basic.rect;fillColor2=none;strokeWidth=1;size=5;indent=4;fillStyle=solid;fontColor=#e3f4ff;fillColor=#98DCF4;gradientColor=#44BDFF;gradientDirection=east;top=1;right=1;topLeftStyle=rounded;topRightStyle=rounded;bottomRightStyle=square;absoluteCornerSize=1;fillOpacity=100;bottomLeftStyle=square;strokeColor=none;" vertex="1" parent="1">
          <mxGeometry x="960" y="320" width="90" height="40" as="geometry" />
        </mxCell>
        <mxCell id="5gIK9H_TRk9RTIMX3tJv-25" value="&lt;font face=&quot;Roboto&quot; color=&quot;#063d76&quot;&gt;&lt;b&gt;modules&lt;/b&gt;&lt;/font&gt;" style="text;html=1;strokeColor=none;fillColor=none;align=center;verticalAlign=middle;whiteSpace=wrap;rounded=0;" vertex="1" parent="1">
          <mxGeometry x="970" y="320" width="70" height="40" as="geometry" />
        </mxCell>
        <mxCell id="5gIK9H_TRk9RTIMX3tJv-26" value="&lt;font face=&quot;Roboto&quot; color=&quot;#e3f4ff&quot;&gt;name&lt;/font&gt;" style="text;html=1;strokeColor=none;fillColor=none;align=left;verticalAlign=middle;whiteSpace=wrap;rounded=0;" vertex="1" parent="1">
          <mxGeometry x="960" y="380" width="80" height="20" as="geometry" />
        </mxCell>
        <mxCell id="5gIK9H_TRk9RTIMX3tJv-27" value="&lt;font face=&quot;Roboto&quot; color=&quot;#e3f4ff&quot;&gt;mac_address&lt;/font&gt;" style="text;html=1;strokeColor=none;fillColor=none;align=left;verticalAlign=middle;whiteSpace=wrap;rounded=0;" vertex="1" parent="1">
          <mxGeometry x="960" y="400" width="80" height="20" as="geometry" />
        </mxCell>
        <mxCell id="5gIK9H_TRk9RTIMX3tJv-28" value="" style="verticalLabelPosition=bottom;verticalAlign=top;html=1;shape=mxgraph.basic.rect;fillColor2=none;strokeWidth=1;size=5;indent=4;fillStyle=solid;fontColor=#e3f4ff;fillColor=#4874EC;gradientColor=#1D4AAA;gradientDirection=east;top=1;right=1;topLeftStyle=square;topRightStyle=square;bottomRightStyle=rounded;absoluteCornerSize=1;fillOpacity=100;bottomLeftStyle=rounded;strokeColor=none;" vertex="1" parent="1">
          <mxGeometry x="590" y="120" width="90" height="140" as="geometry" />
        </mxCell>
        <mxCell id="5gIK9H_TRk9RTIMX3tJv-29" value="&lt;font face=&quot;Roboto&quot; color=&quot;#e3f4ff&quot;&gt;&lt;u&gt;id&lt;/u&gt;&lt;/font&gt;" style="text;html=1;strokeColor=none;fillColor=none;align=left;verticalAlign=middle;whiteSpace=wrap;rounded=0;" vertex="1" parent="1">
          <mxGeometry x="590" y="120" width="80" height="20" as="geometry" />
        </mxCell>
        <mxCell id="5gIK9H_TRk9RTIMX3tJv-30" value="" style="verticalLabelPosition=bottom;verticalAlign=top;html=1;shape=mxgraph.basic.rect;fillColor2=none;strokeWidth=1;size=5;indent=4;fillStyle=solid;fontColor=#e3f4ff;fillColor=#98DCF4;gradientColor=#44BDFF;gradientDirection=east;top=1;right=1;topLeftStyle=rounded;topRightStyle=rounded;bottomRightStyle=square;absoluteCornerSize=1;fillOpacity=100;bottomLeftStyle=square;strokeColor=none;" vertex="1" parent="1">
          <mxGeometry x="590" y="80" width="90" height="40" as="geometry" />
        </mxCell>
        <mxCell id="5gIK9H_TRk9RTIMX3tJv-31" value="&lt;font face=&quot;Roboto&quot; color=&quot;#063d76&quot;&gt;&lt;b&gt;users&lt;/b&gt;&lt;/font&gt;" style="text;html=1;strokeColor=none;fillColor=none;align=center;verticalAlign=middle;whiteSpace=wrap;rounded=0;" vertex="1" parent="1">
          <mxGeometry x="600" y="80" width="70" height="40" as="geometry" />
        </mxCell>
        <mxCell id="5gIK9H_TRk9RTIMX3tJv-32" value="&lt;font face=&quot;Roboto&quot; color=&quot;#e3f4ff&quot;&gt;name&lt;/font&gt;" style="text;html=1;strokeColor=none;fillColor=none;align=left;verticalAlign=middle;whiteSpace=wrap;rounded=0;" vertex="1" parent="1">
          <mxGeometry x="590" y="140" width="80" height="20" as="geometry" />
        </mxCell>
        <mxCell id="5gIK9H_TRk9RTIMX3tJv-33" value="&lt;font face=&quot;Roboto&quot; color=&quot;#e3f4ff&quot;&gt;email&lt;/font&gt;" style="text;html=1;strokeColor=none;fillColor=none;align=left;verticalAlign=middle;whiteSpace=wrap;rounded=0;" vertex="1" parent="1">
          <mxGeometry x="590" y="160" width="80" height="20" as="geometry" />
        </mxCell>
        <mxCell id="5gIK9H_TRk9RTIMX3tJv-34" value="&lt;font face=&quot;Roboto&quot; color=&quot;#e3f4ff&quot;&gt;phone&lt;/font&gt;" style="text;html=1;strokeColor=none;fillColor=none;align=left;verticalAlign=middle;whiteSpace=wrap;rounded=0;" vertex="1" parent="1">
          <mxGeometry x="590" y="180" width="80" height="20" as="geometry" />
        </mxCell>
        <mxCell id="5gIK9H_TRk9RTIMX3tJv-35" value="&lt;font face=&quot;Roboto&quot; color=&quot;#e3f4ff&quot;&gt;password&lt;/font&gt;" style="text;html=1;strokeColor=none;fillColor=none;align=left;verticalAlign=middle;whiteSpace=wrap;rounded=0;" vertex="1" parent="1">
          <mxGeometry x="590" y="200" width="80" height="20" as="geometry" />
        </mxCell>
        <mxCell id="5gIK9H_TRk9RTIMX3tJv-36" value="&lt;font face=&quot;Roboto&quot; color=&quot;#e3f4ff&quot;&gt;salt&lt;/font&gt;" style="text;html=1;strokeColor=none;fillColor=none;align=left;verticalAlign=middle;whiteSpace=wrap;rounded=0;" vertex="1" parent="1">
          <mxGeometry x="590" y="220" width="80" height="20" as="geometry" />
        </mxCell>
        <mxCell id="5gIK9H_TRk9RTIMX3tJv-37" value="&lt;font face=&quot;Roboto&quot; color=&quot;#e3f4ff&quot;&gt;id_identity&lt;/font&gt;" style="text;html=1;strokeColor=none;fillColor=none;align=left;verticalAlign=middle;whiteSpace=wrap;rounded=0;" vertex="1" parent="1">
          <mxGeometry x="590" y="240" width="80" height="20" as="geometry" />
        </mxCell>
        <mxCell id="5gIK9H_TRk9RTIMX3tJv-38" value="" style="verticalLabelPosition=bottom;verticalAlign=top;html=1;shape=mxgraph.basic.rect;fillColor2=none;strokeWidth=1;size=5;indent=4;fillStyle=solid;fontColor=#e3f4ff;fillColor=#4874EC;gradientColor=#1D4AAA;gradientDirection=east;top=1;right=1;topLeftStyle=square;topRightStyle=square;bottomRightStyle=rounded;absoluteCornerSize=1;fillOpacity=100;bottomLeftStyle=rounded;strokeColor=none;" vertex="1" parent="1">
          <mxGeometry x="800" y="120" width="90" height="180" as="geometry" />
        </mxCell>
        <mxCell id="5gIK9H_TRk9RTIMX3tJv-39" value="&lt;font face=&quot;Roboto&quot; color=&quot;#e3f4ff&quot;&gt;&lt;u&gt;id&lt;/u&gt;&lt;/font&gt;" style="text;html=1;strokeColor=none;fillColor=none;align=left;verticalAlign=middle;whiteSpace=wrap;rounded=0;" vertex="1" parent="1">
          <mxGeometry x="800" y="120" width="80" height="20" as="geometry" />
        </mxCell>
        <mxCell id="5gIK9H_TRk9RTIMX3tJv-40" value="" style="verticalLabelPosition=bottom;verticalAlign=top;html=1;shape=mxgraph.basic.rect;fillColor2=none;strokeWidth=1;size=5;indent=4;fillStyle=solid;fontColor=#e3f4ff;fillColor=#98DCF4;gradientColor=#44BDFF;gradientDirection=east;top=1;right=1;topLeftStyle=rounded;topRightStyle=rounded;bottomRightStyle=square;absoluteCornerSize=1;fillOpacity=100;bottomLeftStyle=square;strokeColor=none;" vertex="1" parent="1">
          <mxGeometry x="800" y="80" width="90" height="40" as="geometry" />
        </mxCell>
        <mxCell id="5gIK9H_TRk9RTIMX3tJv-41" value="&lt;font face=&quot;Roboto&quot; color=&quot;#063d76&quot;&gt;&lt;b&gt;vehicles&lt;/b&gt;&lt;/font&gt;" style="text;html=1;strokeColor=none;fillColor=none;align=center;verticalAlign=middle;whiteSpace=wrap;rounded=0;" vertex="1" parent="1">
          <mxGeometry x="810" y="80" width="70" height="40" as="geometry" />
        </mxCell>
        <mxCell id="5gIK9H_TRk9RTIMX3tJv-42" value="&lt;font face=&quot;Roboto&quot; color=&quot;#e3f4ff&quot;&gt;name&lt;/font&gt;" style="text;html=1;strokeColor=none;fillColor=none;align=left;verticalAlign=middle;whiteSpace=wrap;rounded=0;" vertex="1" parent="1">
          <mxGeometry x="800" y="140" width="80" height="20" as="geometry" />
        </mxCell>
        <mxCell id="5gIK9H_TRk9RTIMX3tJv-43" value="&lt;font face=&quot;Roboto&quot; color=&quot;#e3f4ff&quot;&gt;licence_plate&lt;/font&gt;" style="text;html=1;strokeColor=none;fillColor=none;align=left;verticalAlign=middle;whiteSpace=wrap;rounded=0;" vertex="1" parent="1">
          <mxGeometry x="800" y="160" width="80" height="20" as="geometry" />
        </mxCell>
        <mxCell id="5gIK9H_TRk9RTIMX3tJv-44" value="&lt;font face=&quot;Roboto&quot; color=&quot;#e3f4ff&quot;&gt;#id_address&lt;/font&gt;" style="text;html=1;strokeColor=none;fillColor=none;align=left;verticalAlign=middle;whiteSpace=wrap;rounded=0;" vertex="1" parent="1">
          <mxGeometry x="800" y="180" width="80" height="20" as="geometry" />
        </mxCell>
        <mxCell id="10mvLU-QeFGgbn-nIiAk-1" style="edgeStyle=orthogonalEdgeStyle;rounded=0;orthogonalLoop=1;jettySize=auto;html=1;endArrow=block;endFill=1;" edge="1" parent="1" source="5gIK9H_TRk9RTIMX3tJv-45">
          <mxGeometry relative="1" as="geometry">
            <mxPoint x="680" y="210" as="targetPoint" />
          </mxGeometry>
        </mxCell>
        <mxCell id="5gIK9H_TRk9RTIMX3tJv-45" value="&lt;font face=&quot;Roboto&quot; color=&quot;#e3f4ff&quot;&gt;#id_owner&lt;/font&gt;" style="text;html=1;strokeColor=none;fillColor=none;align=left;verticalAlign=middle;whiteSpace=wrap;rounded=0;" vertex="1" parent="1">
          <mxGeometry x="800" y="200" width="80" height="20" as="geometry" />
        </mxCell>
        <mxCell id="5gIK9H_TRk9RTIMX3tJv-46" value="&lt;font face=&quot;Roboto&quot; color=&quot;#e3f4ff&quot;&gt;is_available&lt;/font&gt;" style="text;html=1;strokeColor=none;fillColor=none;align=left;verticalAlign=middle;whiteSpace=wrap;rounded=0;" vertex="1" parent="1">
          <mxGeometry x="800" y="220" width="80" height="20" as="geometry" />
        </mxCell>
        <mxCell id="5gIK9H_TRk9RTIMX3tJv-47" value="&lt;font face=&quot;Roboto&quot; color=&quot;#e3f4ff&quot;&gt;is_booked&lt;/font&gt;" style="text;html=1;strokeColor=none;fillColor=none;align=left;verticalAlign=middle;whiteSpace=wrap;rounded=0;" vertex="1" parent="1">
          <mxGeometry x="800" y="240" width="80" height="20" as="geometry" />
        </mxCell>
        <mxCell id="5gIK9H_TRk9RTIMX3tJv-48" value="&lt;font face=&quot;Roboto&quot; color=&quot;#e3f4ff&quot;&gt;#id_user_book&lt;/font&gt;" style="text;html=1;strokeColor=none;fillColor=none;align=left;verticalAlign=middle;whiteSpace=wrap;rounded=0;" vertex="1" parent="1">
          <mxGeometry x="800" y="260" width="80" height="20" as="geometry" />
        </mxCell>
        <mxCell id="10mvLU-QeFGgbn-nIiAk-5" style="edgeStyle=orthogonalEdgeStyle;rounded=1;orthogonalLoop=1;jettySize=auto;html=1;entryX=0.5;entryY=0;entryDx=0;entryDy=0;" edge="1" parent="1" target="5gIK9H_TRk9RTIMX3tJv-25">
          <mxGeometry relative="1" as="geometry">
            <mxPoint x="890" y="290" as="sourcePoint" />
          </mxGeometry>
        </mxCell>
        <mxCell id="5gIK9H_TRk9RTIMX3tJv-49" value="&lt;font face=&quot;Roboto&quot; color=&quot;#e3f4ff&quot;&gt;#id_module&lt;/font&gt;" style="text;html=1;strokeColor=none;fillColor=none;align=left;verticalAlign=middle;whiteSpace=wrap;rounded=0;" vertex="1" parent="1">
          <mxGeometry x="800" y="280" width="80" height="20" as="geometry" />
        </mxCell>
        <mxCell id="10mvLU-QeFGgbn-nIiAk-2" style="edgeStyle=orthogonalEdgeStyle;rounded=1;orthogonalLoop=1;jettySize=auto;html=1;exitX=0;exitY=0.5;exitDx=0;exitDy=0;endArrow=block;endFill=1;" edge="1" parent="1" source="5gIK9H_TRk9RTIMX3tJv-48">
          <mxGeometry relative="1" as="geometry">
            <mxPoint x="680" y="210" as="targetPoint" />
            <mxPoint x="780" y="259.31" as="sourcePoint" />
            <Array as="points">
              <mxPoint x="740" y="270" />
              <mxPoint x="740" y="210" />
            </Array>
          </mxGeometry>
        </mxCell>
        <mxCell id="10mvLU-QeFGgbn-nIiAk-4" style="edgeStyle=orthogonalEdgeStyle;rounded=1;orthogonalLoop=1;jettySize=auto;html=1;endArrow=block;endFill=1;entryX=0;entryY=0.5;entryDx=0;entryDy=0;" edge="1" parent="1" target="5gIK9H_TRk9RTIMX3tJv-7">
          <mxGeometry relative="1" as="geometry">
            <mxPoint x="690" y="220" as="targetPoint" />
            <mxPoint x="890" y="190" as="sourcePoint" />
            <Array as="points">
              <mxPoint x="940" y="190" />
              <mxPoint x="940" y="190" />
            </Array>
          </mxGeometry>
        </mxCell>
      </root>
    </mxGraphModel>
  </diagram>
  <diagram id="1fikG_hG4G3vu008L4Ky" name="MLD_final">
    <mxGraphModel dx="989" dy="579" grid="1" gridSize="10" guides="1" tooltips="1" connect="1" arrows="1" fold="1" page="1" pageScale="1" pageWidth="1100" pageHeight="850" math="0" shadow="0">
      <root>
        <mxCell id="0" />
        <mxCell id="1" parent="0" />
        <mxCell id="am_xomH1Kri0JvShhvc1-1" value="" style="verticalLabelPosition=bottom;verticalAlign=top;html=1;shape=mxgraph.basic.rect;fillColor2=none;strokeWidth=1;size=5;indent=4;fillStyle=solid;fontColor=#e3f4ff;fillColor=#4874EC;gradientColor=#1D4AAA;gradientDirection=east;top=1;right=1;topLeftStyle=square;topRightStyle=square;bottomRightStyle=rounded;absoluteCornerSize=1;fillOpacity=100;bottomLeftStyle=rounded;strokeColor=none;" vertex="1" parent="1">
          <mxGeometry x="650" y="200" width="90" height="120" as="geometry" />
        </mxCell>
        <mxCell id="am_xomH1Kri0JvShhvc1-2" value="&lt;font face=&quot;Roboto&quot; color=&quot;#e3f4ff&quot;&gt;&lt;u&gt;id&lt;/u&gt;&lt;/font&gt;" style="text;html=1;strokeColor=none;fillColor=none;align=left;verticalAlign=middle;whiteSpace=wrap;rounded=0;" vertex="1" parent="1">
          <mxGeometry x="650" y="200" width="80" height="20" as="geometry" />
        </mxCell>
        <mxCell id="am_xomH1Kri0JvShhvc1-3" value="" style="verticalLabelPosition=bottom;verticalAlign=top;html=1;shape=mxgraph.basic.rect;fillColor2=none;strokeWidth=1;size=5;indent=4;fillStyle=solid;fontColor=#e3f4ff;fillColor=#98DCF4;gradientColor=#44BDFF;gradientDirection=east;top=1;right=1;topLeftStyle=rounded;topRightStyle=rounded;bottomRightStyle=square;absoluteCornerSize=1;fillOpacity=100;bottomLeftStyle=square;strokeColor=none;" vertex="1" parent="1">
          <mxGeometry x="650" y="160" width="90" height="40" as="geometry" />
        </mxCell>
        <mxCell id="am_xomH1Kri0JvShhvc1-4" value="&lt;font face=&quot;Roboto&quot; color=&quot;#063d76&quot;&gt;&lt;b&gt;addresses&lt;/b&gt;&lt;/font&gt;" style="text;html=1;strokeColor=none;fillColor=none;align=center;verticalAlign=middle;whiteSpace=wrap;rounded=0;" vertex="1" parent="1">
          <mxGeometry x="660" y="160" width="70" height="40" as="geometry" />
        </mxCell>
        <mxCell id="am_xomH1Kri0JvShhvc1-5" value="&lt;font face=&quot;Roboto&quot; color=&quot;#e3f4ff&quot;&gt;street_address&lt;/font&gt;" style="text;html=1;strokeColor=none;fillColor=none;align=left;verticalAlign=middle;whiteSpace=wrap;rounded=0;" vertex="1" parent="1">
          <mxGeometry x="650" y="220" width="80" height="20" as="geometry" />
        </mxCell>
        <mxCell id="am_xomH1Kri0JvShhvc1-6" value="&lt;font face=&quot;Roboto&quot; color=&quot;#e3f4ff&quot;&gt;city&lt;/font&gt;" style="text;html=1;strokeColor=none;fillColor=none;align=left;verticalAlign=middle;whiteSpace=wrap;rounded=0;" vertex="1" parent="1">
          <mxGeometry x="650" y="240" width="80" height="20" as="geometry" />
        </mxCell>
        <mxCell id="am_xomH1Kri0JvShhvc1-7" value="&lt;font face=&quot;Roboto&quot; color=&quot;#e3f4ff&quot;&gt;state&lt;/font&gt;" style="text;html=1;strokeColor=none;fillColor=none;align=left;verticalAlign=middle;whiteSpace=wrap;rounded=0;" vertex="1" parent="1">
          <mxGeometry x="650" y="260" width="80" height="20" as="geometry" />
        </mxCell>
        <mxCell id="am_xomH1Kri0JvShhvc1-8" value="&lt;font face=&quot;Roboto&quot; color=&quot;#e3f4ff&quot;&gt;zip_code&lt;/font&gt;" style="text;html=1;strokeColor=none;fillColor=none;align=left;verticalAlign=middle;whiteSpace=wrap;rounded=0;" vertex="1" parent="1">
          <mxGeometry x="650" y="280" width="80" height="20" as="geometry" />
        </mxCell>
        <mxCell id="am_xomH1Kri0JvShhvc1-9" value="&lt;font face=&quot;Roboto&quot; color=&quot;#e3f4ff&quot;&gt;location&lt;/font&gt;" style="text;html=1;strokeColor=none;fillColor=none;align=left;verticalAlign=middle;whiteSpace=wrap;rounded=0;" vertex="1" parent="1">
          <mxGeometry x="650" y="300" width="80" height="20" as="geometry" />
        </mxCell>
        <mxCell id="am_xomH1Kri0JvShhvc1-10" value="" style="verticalLabelPosition=bottom;verticalAlign=top;html=1;shape=mxgraph.basic.rect;fillColor2=none;strokeWidth=1;size=5;indent=4;fillStyle=solid;fontColor=#e3f4ff;fillColor=#4874EC;gradientColor=#1D4AAA;gradientDirection=east;top=1;right=1;topLeftStyle=square;topRightStyle=square;bottomRightStyle=rounded;absoluteCornerSize=1;fillOpacity=100;bottomLeftStyle=rounded;strokeColor=none;" vertex="1" parent="1">
          <mxGeometry x="340" y="200" width="90" height="60" as="geometry" />
        </mxCell>
        <mxCell id="am_xomH1Kri0JvShhvc1-11" value="&lt;font face=&quot;Roboto&quot; color=&quot;#e3f4ff&quot;&gt;&lt;u&gt;id&lt;/u&gt;&lt;/font&gt;" style="text;html=1;strokeColor=none;fillColor=none;align=left;verticalAlign=middle;whiteSpace=wrap;rounded=0;" vertex="1" parent="1">
          <mxGeometry x="340" y="200" width="80" height="20" as="geometry" />
        </mxCell>
        <mxCell id="am_xomH1Kri0JvShhvc1-12" value="" style="verticalLabelPosition=bottom;verticalAlign=top;html=1;shape=mxgraph.basic.rect;fillColor2=none;strokeWidth=1;size=5;indent=4;fillStyle=solid;fontColor=#e3f4ff;fillColor=#98DCF4;gradientColor=#44BDFF;gradientDirection=east;top=1;right=1;topLeftStyle=rounded;topRightStyle=rounded;bottomRightStyle=square;absoluteCornerSize=1;fillOpacity=100;bottomLeftStyle=square;strokeColor=none;" vertex="1" parent="1">
          <mxGeometry x="340" y="160" width="90" height="40" as="geometry" />
        </mxCell>
        <mxCell id="am_xomH1Kri0JvShhvc1-13" value="&lt;font face=&quot;Roboto&quot; color=&quot;#063d76&quot;&gt;&lt;b&gt;carmodel&lt;/b&gt;&lt;/font&gt;" style="text;html=1;strokeColor=none;fillColor=none;align=center;verticalAlign=middle;whiteSpace=wrap;rounded=0;" vertex="1" parent="1">
          <mxGeometry x="350" y="160" width="70" height="40" as="geometry" />
        </mxCell>
        <mxCell id="am_xomH1Kri0JvShhvc1-14" value="&lt;font face=&quot;Roboto&quot; color=&quot;#e3f4ff&quot;&gt;brandname&lt;/font&gt;" style="text;html=1;strokeColor=none;fillColor=none;align=left;verticalAlign=middle;whiteSpace=wrap;rounded=0;" vertex="1" parent="1">
          <mxGeometry x="340" y="220" width="80" height="20" as="geometry" />
        </mxCell>
        <mxCell id="am_xomH1Kri0JvShhvc1-15" value="&lt;font face=&quot;Roboto&quot; color=&quot;#e3f4ff&quot;&gt;carmodel&lt;/font&gt;" style="text;html=1;strokeColor=none;fillColor=none;align=left;verticalAlign=middle;whiteSpace=wrap;rounded=0;" vertex="1" parent="1">
          <mxGeometry x="340" y="240" width="80" height="20" as="geometry" />
        </mxCell>
        <mxCell id="am_xomH1Kri0JvShhvc1-16" value="" style="verticalLabelPosition=bottom;verticalAlign=top;html=1;shape=mxgraph.basic.rect;fillColor2=none;strokeWidth=1;size=5;indent=4;fillStyle=solid;fontColor=#e3f4ff;fillColor=#4874EC;gradientColor=#1D4AAA;gradientDirection=east;top=1;right=1;topLeftStyle=square;topRightStyle=square;bottomRightStyle=rounded;absoluteCornerSize=1;fillOpacity=100;bottomLeftStyle=rounded;strokeColor=none;" vertex="1" parent="1">
          <mxGeometry x="810" y="200" width="90" height="60" as="geometry" />
        </mxCell>
        <mxCell id="am_xomH1Kri0JvShhvc1-17" value="&lt;font face=&quot;Roboto&quot; color=&quot;#e3f4ff&quot;&gt;&lt;u&gt;id&lt;/u&gt;&lt;/font&gt;" style="text;html=1;strokeColor=none;fillColor=none;align=left;verticalAlign=middle;whiteSpace=wrap;rounded=0;" vertex="1" parent="1">
          <mxGeometry x="810" y="200" width="80" height="20" as="geometry" />
        </mxCell>
        <mxCell id="am_xomH1Kri0JvShhvc1-18" value="" style="verticalLabelPosition=bottom;verticalAlign=top;html=1;shape=mxgraph.basic.rect;fillColor2=none;strokeWidth=1;size=5;indent=4;fillStyle=solid;fontColor=#e3f4ff;fillColor=#98DCF4;gradientColor=#44BDFF;gradientDirection=east;top=1;right=1;topLeftStyle=rounded;topRightStyle=rounded;bottomRightStyle=square;absoluteCornerSize=1;fillOpacity=100;bottomLeftStyle=square;strokeColor=none;" vertex="1" parent="1">
          <mxGeometry x="810" y="160" width="90" height="40" as="geometry" />
        </mxCell>
        <mxCell id="am_xomH1Kri0JvShhvc1-19" value="&lt;font face=&quot;Roboto&quot; color=&quot;#063d76&quot;&gt;&lt;b&gt;city&lt;/b&gt;&lt;/font&gt;" style="text;html=1;strokeColor=none;fillColor=none;align=center;verticalAlign=middle;whiteSpace=wrap;rounded=0;" vertex="1" parent="1">
          <mxGeometry x="820" y="160" width="70" height="40" as="geometry" />
        </mxCell>
        <mxCell id="am_xomH1Kri0JvShhvc1-20" value="&lt;font face=&quot;Roboto&quot; color=&quot;#e3f4ff&quot;&gt;city_name&lt;/font&gt;" style="text;html=1;strokeColor=none;fillColor=none;align=left;verticalAlign=middle;whiteSpace=wrap;rounded=0;" vertex="1" parent="1">
          <mxGeometry x="810" y="220" width="80" height="20" as="geometry" />
        </mxCell>
        <mxCell id="am_xomH1Kri0JvShhvc1-21" value="&lt;font face=&quot;Roboto&quot; color=&quot;#e3f4ff&quot;&gt;location&lt;/font&gt;" style="text;html=1;strokeColor=none;fillColor=none;align=left;verticalAlign=middle;whiteSpace=wrap;rounded=0;" vertex="1" parent="1">
          <mxGeometry x="810" y="240" width="80" height="20" as="geometry" />
        </mxCell>
        <mxCell id="am_xomH1Kri0JvShhvc1-22" value="" style="verticalLabelPosition=bottom;verticalAlign=top;html=1;shape=mxgraph.basic.rect;fillColor2=none;strokeWidth=1;size=5;indent=4;fillStyle=solid;fontColor=#e3f4ff;fillColor=#4874EC;gradientColor=#1D4AAA;gradientDirection=east;top=1;right=1;topLeftStyle=square;topRightStyle=square;bottomRightStyle=rounded;absoluteCornerSize=1;fillOpacity=100;bottomLeftStyle=rounded;strokeColor=none;" vertex="1" parent="1">
          <mxGeometry x="650" y="430" width="90" height="60" as="geometry" />
        </mxCell>
        <mxCell id="am_xomH1Kri0JvShhvc1-23" value="&lt;font face=&quot;Roboto&quot; color=&quot;#e3f4ff&quot;&gt;&lt;u&gt;id&lt;/u&gt;&lt;/font&gt;" style="text;html=1;strokeColor=none;fillColor=none;align=left;verticalAlign=middle;whiteSpace=wrap;rounded=0;" vertex="1" parent="1">
          <mxGeometry x="650" y="430" width="80" height="20" as="geometry" />
        </mxCell>
        <mxCell id="am_xomH1Kri0JvShhvc1-24" value="" style="verticalLabelPosition=bottom;verticalAlign=top;html=1;shape=mxgraph.basic.rect;fillColor2=none;strokeWidth=1;size=5;indent=4;fillStyle=solid;fontColor=#e3f4ff;fillColor=#98DCF4;gradientColor=#44BDFF;gradientDirection=east;top=1;right=1;topLeftStyle=rounded;topRightStyle=rounded;bottomRightStyle=square;absoluteCornerSize=1;fillOpacity=100;bottomLeftStyle=square;strokeColor=none;" vertex="1" parent="1">
          <mxGeometry x="650" y="390" width="90" height="40" as="geometry" />
        </mxCell>
        <mxCell id="am_xomH1Kri0JvShhvc1-25" value="&lt;font face=&quot;Roboto&quot; color=&quot;#063d76&quot;&gt;&lt;b&gt;modules&lt;/b&gt;&lt;/font&gt;" style="text;html=1;strokeColor=none;fillColor=none;align=center;verticalAlign=middle;whiteSpace=wrap;rounded=0;" vertex="1" parent="1">
          <mxGeometry x="660" y="390" width="70" height="40" as="geometry" />
        </mxCell>
        <mxCell id="am_xomH1Kri0JvShhvc1-26" value="&lt;font face=&quot;Roboto&quot; color=&quot;#e3f4ff&quot;&gt;name&lt;/font&gt;" style="text;html=1;strokeColor=none;fillColor=none;align=left;verticalAlign=middle;whiteSpace=wrap;rounded=0;" vertex="1" parent="1">
          <mxGeometry x="650" y="450" width="80" height="20" as="geometry" />
        </mxCell>
        <mxCell id="am_xomH1Kri0JvShhvc1-27" value="&lt;font face=&quot;Roboto&quot; color=&quot;#e3f4ff&quot;&gt;mac_address&lt;/font&gt;" style="text;html=1;strokeColor=none;fillColor=none;align=left;verticalAlign=middle;whiteSpace=wrap;rounded=0;" vertex="1" parent="1">
          <mxGeometry x="650" y="470" width="80" height="20" as="geometry" />
        </mxCell>
        <mxCell id="am_xomH1Kri0JvShhvc1-28" value="" style="verticalLabelPosition=bottom;verticalAlign=top;html=1;shape=mxgraph.basic.rect;fillColor2=none;strokeWidth=1;size=5;indent=4;fillStyle=solid;fontColor=#e3f4ff;fillColor=#4874EC;gradientColor=#1D4AAA;gradientDirection=east;top=1;right=1;topLeftStyle=square;topRightStyle=square;bottomRightStyle=rounded;absoluteCornerSize=1;fillOpacity=100;bottomLeftStyle=rounded;strokeColor=none;" vertex="1" parent="1">
          <mxGeometry x="340" y="360" width="90" height="140" as="geometry" />
        </mxCell>
        <mxCell id="am_xomH1Kri0JvShhvc1-29" value="&lt;font face=&quot;Roboto&quot; color=&quot;#e3f4ff&quot;&gt;&lt;u&gt;id&lt;/u&gt;&lt;/font&gt;" style="text;html=1;strokeColor=none;fillColor=none;align=left;verticalAlign=middle;whiteSpace=wrap;rounded=0;" vertex="1" parent="1">
          <mxGeometry x="340" y="360" width="80" height="20" as="geometry" />
        </mxCell>
        <mxCell id="am_xomH1Kri0JvShhvc1-30" value="" style="verticalLabelPosition=bottom;verticalAlign=top;html=1;shape=mxgraph.basic.rect;fillColor2=none;strokeWidth=1;size=5;indent=4;fillStyle=solid;fontColor=#e3f4ff;fillColor=#98DCF4;gradientColor=#44BDFF;gradientDirection=east;top=1;right=1;topLeftStyle=rounded;topRightStyle=rounded;bottomRightStyle=square;absoluteCornerSize=1;fillOpacity=100;bottomLeftStyle=square;strokeColor=none;" vertex="1" parent="1">
          <mxGeometry x="340" y="320" width="90" height="40" as="geometry" />
        </mxCell>
        <mxCell id="am_xomH1Kri0JvShhvc1-31" value="&lt;font face=&quot;Roboto&quot; color=&quot;#063d76&quot;&gt;&lt;b&gt;users&lt;/b&gt;&lt;/font&gt;" style="text;html=1;strokeColor=none;fillColor=none;align=center;verticalAlign=middle;whiteSpace=wrap;rounded=0;" vertex="1" parent="1">
          <mxGeometry x="350" y="320" width="70" height="40" as="geometry" />
        </mxCell>
        <mxCell id="am_xomH1Kri0JvShhvc1-32" value="&lt;font face=&quot;Roboto&quot; color=&quot;#e3f4ff&quot;&gt;name&lt;/font&gt;" style="text;html=1;strokeColor=none;fillColor=none;align=left;verticalAlign=middle;whiteSpace=wrap;rounded=0;" vertex="1" parent="1">
          <mxGeometry x="340" y="380" width="80" height="20" as="geometry" />
        </mxCell>
        <mxCell id="am_xomH1Kri0JvShhvc1-33" value="&lt;font face=&quot;Roboto&quot; color=&quot;#e3f4ff&quot;&gt;email&lt;/font&gt;" style="text;html=1;strokeColor=none;fillColor=none;align=left;verticalAlign=middle;whiteSpace=wrap;rounded=0;" vertex="1" parent="1">
          <mxGeometry x="340" y="400" width="80" height="20" as="geometry" />
        </mxCell>
        <mxCell id="am_xomH1Kri0JvShhvc1-34" value="&lt;font face=&quot;Roboto&quot; color=&quot;#e3f4ff&quot;&gt;phone&lt;/font&gt;" style="text;html=1;strokeColor=none;fillColor=none;align=left;verticalAlign=middle;whiteSpace=wrap;rounded=0;" vertex="1" parent="1">
          <mxGeometry x="340" y="420" width="80" height="20" as="geometry" />
        </mxCell>
        <mxCell id="am_xomH1Kri0JvShhvc1-35" value="&lt;font face=&quot;Roboto&quot; color=&quot;#e3f4ff&quot;&gt;password&lt;/font&gt;" style="text;html=1;strokeColor=none;fillColor=none;align=left;verticalAlign=middle;whiteSpace=wrap;rounded=0;" vertex="1" parent="1">
          <mxGeometry x="340" y="440" width="80" height="20" as="geometry" />
        </mxCell>
        <mxCell id="am_xomH1Kri0JvShhvc1-36" value="&lt;font face=&quot;Roboto&quot; color=&quot;#e3f4ff&quot;&gt;salt&lt;/font&gt;" style="text;html=1;strokeColor=none;fillColor=none;align=left;verticalAlign=middle;whiteSpace=wrap;rounded=0;" vertex="1" parent="1">
          <mxGeometry x="340" y="460" width="80" height="20" as="geometry" />
        </mxCell>
        <mxCell id="am_xomH1Kri0JvShhvc1-37" value="&lt;font face=&quot;Roboto&quot; color=&quot;#e3f4ff&quot;&gt;id_identity&lt;/font&gt;" style="text;html=1;strokeColor=none;fillColor=none;align=left;verticalAlign=middle;whiteSpace=wrap;rounded=0;" vertex="1" parent="1">
          <mxGeometry x="340" y="480" width="80" height="20" as="geometry" />
        </mxCell>
        <mxCell id="am_xomH1Kri0JvShhvc1-38" value="" style="verticalLabelPosition=bottom;verticalAlign=top;html=1;shape=mxgraph.basic.rect;fillColor2=none;strokeWidth=1;size=5;indent=4;fillStyle=solid;fontColor=#e3f4ff;fillColor=#4874EC;gradientColor=#1D4AAA;gradientDirection=east;top=1;right=1;topLeftStyle=square;topRightStyle=square;bottomRightStyle=rounded;absoluteCornerSize=1;fillOpacity=100;bottomLeftStyle=rounded;strokeColor=none;" vertex="1" parent="1">
          <mxGeometry x="490" y="200" width="90" height="180" as="geometry" />
        </mxCell>
        <mxCell id="am_xomH1Kri0JvShhvc1-39" value="&lt;font face=&quot;Roboto&quot; color=&quot;#e3f4ff&quot;&gt;&lt;u&gt;id&lt;/u&gt;&lt;/font&gt;" style="text;html=1;strokeColor=none;fillColor=none;align=left;verticalAlign=middle;whiteSpace=wrap;rounded=0;" vertex="1" parent="1">
          <mxGeometry x="490" y="200" width="80" height="20" as="geometry" />
        </mxCell>
        <mxCell id="am_xomH1Kri0JvShhvc1-40" value="" style="verticalLabelPosition=bottom;verticalAlign=top;html=1;shape=mxgraph.basic.rect;fillColor2=none;strokeWidth=1;size=5;indent=4;fillStyle=solid;fontColor=#e3f4ff;fillColor=#98DCF4;gradientColor=#44BDFF;gradientDirection=east;top=1;right=1;topLeftStyle=rounded;topRightStyle=rounded;bottomRightStyle=square;absoluteCornerSize=1;fillOpacity=100;bottomLeftStyle=square;strokeColor=none;" vertex="1" parent="1">
          <mxGeometry x="490" y="160" width="90" height="40" as="geometry" />
        </mxCell>
        <mxCell id="am_xomH1Kri0JvShhvc1-41" value="&lt;font face=&quot;Roboto&quot; color=&quot;#063d76&quot;&gt;&lt;b&gt;vehicles&lt;/b&gt;&lt;/font&gt;" style="text;html=1;strokeColor=none;fillColor=none;align=center;verticalAlign=middle;whiteSpace=wrap;rounded=0;" vertex="1" parent="1">
          <mxGeometry x="500" y="160" width="70" height="40" as="geometry" />
        </mxCell>
        <mxCell id="am_xomH1Kri0JvShhvc1-55" style="edgeStyle=orthogonalEdgeStyle;rounded=0;orthogonalLoop=1;jettySize=auto;html=1;endArrow=block;endFill=1;" edge="1" parent="1" source="am_xomH1Kri0JvShhvc1-42">
          <mxGeometry relative="1" as="geometry">
            <mxPoint x="430" y="230" as="targetPoint" />
          </mxGeometry>
        </mxCell>
        <mxCell id="am_xomH1Kri0JvShhvc1-42" value="&lt;font face=&quot;Roboto&quot; color=&quot;#e3f4ff&quot;&gt;name&lt;/font&gt;" style="text;html=1;strokeColor=none;fillColor=none;align=left;verticalAlign=middle;whiteSpace=wrap;rounded=0;" vertex="1" parent="1">
          <mxGeometry x="490" y="220" width="80" height="20" as="geometry" />
        </mxCell>
        <mxCell id="am_xomH1Kri0JvShhvc1-43" value="&lt;font face=&quot;Roboto&quot; color=&quot;#e3f4ff&quot;&gt;licence_plate&lt;/font&gt;" style="text;html=1;strokeColor=none;fillColor=none;align=left;verticalAlign=middle;whiteSpace=wrap;rounded=0;" vertex="1" parent="1">
          <mxGeometry x="490" y="240" width="80" height="20" as="geometry" />
        </mxCell>
        <mxCell id="am_xomH1Kri0JvShhvc1-44" value="&lt;font face=&quot;Roboto&quot; color=&quot;#e3f4ff&quot;&gt;#id_address&lt;/font&gt;" style="text;html=1;strokeColor=none;fillColor=none;align=left;verticalAlign=middle;whiteSpace=wrap;rounded=0;" vertex="1" parent="1">
          <mxGeometry x="490" y="260" width="80" height="20" as="geometry" />
        </mxCell>
        <mxCell id="am_xomH1Kri0JvShhvc1-45" style="edgeStyle=orthogonalEdgeStyle;rounded=1;orthogonalLoop=1;jettySize=auto;html=1;endArrow=block;endFill=1;" edge="1" parent="1" source="am_xomH1Kri0JvShhvc1-46">
          <mxGeometry relative="1" as="geometry">
            <mxPoint x="430" y="470" as="targetPoint" />
            <Array as="points">
              <mxPoint x="460" y="290" />
              <mxPoint x="460" y="470" />
            </Array>
          </mxGeometry>
        </mxCell>
        <mxCell id="am_xomH1Kri0JvShhvc1-46" value="&lt;font face=&quot;Roboto&quot; color=&quot;#e3f4ff&quot;&gt;#id_owner&lt;/font&gt;" style="text;html=1;strokeColor=none;fillColor=none;align=left;verticalAlign=middle;whiteSpace=wrap;rounded=0;" vertex="1" parent="1">
          <mxGeometry x="490" y="280" width="80" height="20" as="geometry" />
        </mxCell>
        <mxCell id="am_xomH1Kri0JvShhvc1-47" value="&lt;font face=&quot;Roboto&quot; color=&quot;#e3f4ff&quot;&gt;is_available&lt;/font&gt;" style="text;html=1;strokeColor=none;fillColor=none;align=left;verticalAlign=middle;whiteSpace=wrap;rounded=0;" vertex="1" parent="1">
          <mxGeometry x="490" y="300" width="80" height="20" as="geometry" />
        </mxCell>
        <mxCell id="am_xomH1Kri0JvShhvc1-48" value="&lt;font face=&quot;Roboto&quot; color=&quot;#e3f4ff&quot;&gt;is_booked&lt;/font&gt;" style="text;html=1;strokeColor=none;fillColor=none;align=left;verticalAlign=middle;whiteSpace=wrap;rounded=0;" vertex="1" parent="1">
          <mxGeometry x="490" y="320" width="80" height="20" as="geometry" />
        </mxCell>
        <mxCell id="am_xomH1Kri0JvShhvc1-49" value="&lt;font face=&quot;Roboto&quot; color=&quot;#e3f4ff&quot;&gt;#id_user_book&lt;/font&gt;" style="text;html=1;strokeColor=none;fillColor=none;align=left;verticalAlign=middle;whiteSpace=wrap;rounded=0;" vertex="1" parent="1">
          <mxGeometry x="490" y="340" width="80" height="20" as="geometry" />
        </mxCell>
        <mxCell id="am_xomH1Kri0JvShhvc1-50" style="edgeStyle=orthogonalEdgeStyle;rounded=1;orthogonalLoop=1;jettySize=auto;html=1;entryX=0.5;entryY=0;entryDx=0;entryDy=0;" edge="1" parent="1" target="am_xomH1Kri0JvShhvc1-25">
          <mxGeometry relative="1" as="geometry">
            <mxPoint x="580" y="370" as="sourcePoint" />
          </mxGeometry>
        </mxCell>
        <mxCell id="am_xomH1Kri0JvShhvc1-51" value="&lt;font face=&quot;Roboto&quot; color=&quot;#e3f4ff&quot;&gt;#id_module&lt;/font&gt;" style="text;html=1;strokeColor=none;fillColor=none;align=left;verticalAlign=middle;whiteSpace=wrap;rounded=0;" vertex="1" parent="1">
          <mxGeometry x="490" y="360" width="80" height="20" as="geometry" />
        </mxCell>
        <mxCell id="am_xomH1Kri0JvShhvc1-52" style="edgeStyle=orthogonalEdgeStyle;rounded=1;orthogonalLoop=1;jettySize=auto;html=1;exitX=0;exitY=0.5;exitDx=0;exitDy=0;endArrow=block;endFill=1;" edge="1" parent="1" source="am_xomH1Kri0JvShhvc1-49">
          <mxGeometry relative="1" as="geometry">
            <mxPoint x="430" y="470" as="targetPoint" />
            <mxPoint x="470" y="339.31" as="sourcePoint" />
            <Array as="points">
              <mxPoint x="460" y="350" />
              <mxPoint x="460" y="470" />
            </Array>
          </mxGeometry>
        </mxCell>
        <mxCell id="am_xomH1Kri0JvShhvc1-53" style="edgeStyle=orthogonalEdgeStyle;rounded=1;orthogonalLoop=1;jettySize=auto;html=1;endArrow=block;endFill=1;entryX=0;entryY=0.5;entryDx=0;entryDy=0;" edge="1" parent="1" target="am_xomH1Kri0JvShhvc1-7">
          <mxGeometry relative="1" as="geometry">
            <mxPoint x="380" y="300" as="targetPoint" />
            <mxPoint x="580" y="270" as="sourcePoint" />
            <Array as="points">
              <mxPoint x="630" y="270" />
              <mxPoint x="630" y="270" />
            </Array>
          </mxGeometry>
        </mxCell>
        <mxCell id="am_xomH1Kri0JvShhvc1-54" style="edgeStyle=orthogonalEdgeStyle;rounded=1;orthogonalLoop=1;jettySize=auto;html=1;endArrow=block;endFill=1;entryX=0;entryY=0.5;entryDx=0;entryDy=0;" edge="1" parent="1">
          <mxGeometry relative="1" as="geometry">
            <mxPoint x="810" y="229.66" as="targetPoint" />
            <mxPoint x="740" y="229.66" as="sourcePoint" />
            <Array as="points">
              <mxPoint x="790" y="229.66" />
              <mxPoint x="790" y="229.66" />
            </Array>
          </mxGeometry>
        </mxCell>
      </root>
    </mxGraphModel>
  </diagram>
</mxfile>
